<svg width="16" height="14" viewBox="0 0 16 14" fill="none" xmlns="http://www.w3.org/2000/svg">
<path fill-rule="evenodd" clip-rule="evenodd" d="M15.5002 6.99997C15.5002 7.24861 15.4014 7.48706 15.2256 7.66288C15.0498 7.8387 14.8113 7.93747 14.5627 7.93747L3.70083 7.93746L7.72646 11.9612C7.81362 12.0484 7.88277 12.1519 7.92994 12.2657C7.97711 12.3796 8.00139 12.5017 8.00139 12.625C8.00139 12.7482 7.97711 12.8703 7.92994 12.9842C7.88277 13.0981 7.81362 13.2016 7.72646 13.2887C7.63929 13.3759 7.53581 13.445 7.42193 13.4922C7.30804 13.5394 7.18598 13.5636 7.06271 13.5636C6.93944 13.5636 6.81738 13.5394 6.70349 13.4922C6.5896 13.445 6.48612 13.3759 6.39896 13.2887L0.77396 7.66371C0.686654 7.57663 0.617386 7.47317 0.570123 7.35928C0.522861 7.24538 0.498534 7.12328 0.498534 6.99996C0.498534 6.87665 0.522861 6.75455 0.570124 6.64065C0.617386 6.52675 0.686654 6.4233 0.77396 6.33621L6.39896 0.711215C6.575 0.535177 6.81376 0.43628 7.06271 0.43628C7.31167 0.43628 7.55042 0.535178 7.72646 0.711215C7.9025 0.887252 8.00139 1.12601 8.00139 1.37497C8.00139 1.62392 7.9025 1.86268 7.72646 2.03872L3.70083 6.06246L14.5627 6.06247C14.8113 6.06247 15.0498 6.16124 15.2256 6.33705C15.4014 6.51287 15.5002 6.75133 15.5002 6.99997Z" fill="white"/>
</svg>
