<svg width="16" height="14" viewBox="0 0 16 14" fill="none" xmlns="http://www.w3.org/2000/svg">
<path fill-rule="evenodd" clip-rule="evenodd" d="M0.500034 7.00003C0.500034 6.75139 0.598805 6.51294 0.774621 6.33712C0.950436 6.16131 1.18889 6.06253 1.43753 6.06254L12.2994 6.06254L8.27378 2.03879C8.18662 1.95162 8.11748 1.84814 8.0703 1.73426C8.02313 1.62037 7.99885 1.49831 7.99885 1.37504C7.99885 1.25177 8.02313 1.1297 8.0703 1.01582C8.11748 0.901929 8.18662 0.79845 8.27378 0.711285C8.36095 0.62412 8.46443 0.554977 8.57831 0.507804C8.6922 0.460631 8.81426 0.436352 8.93753 0.436352C9.0608 0.436352 9.18287 0.460631 9.29675 0.507804C9.41064 0.554977 9.51412 0.62412 9.60128 0.711285L15.2263 6.33629C15.3136 6.42337 15.3829 6.52683 15.4301 6.64072C15.4774 6.75462 15.5017 6.87672 15.5017 7.00004C15.5017 7.12335 15.4774 7.24545 15.4301 7.35935C15.3829 7.47325 15.3136 7.5767 15.2263 7.66379L9.60128 13.2888C9.42525 13.4648 9.18649 13.5637 8.93753 13.5637C8.68858 13.5637 8.44982 13.4648 8.27378 13.2888C8.09775 13.1127 7.99885 12.874 7.99885 12.625C7.99885 12.3761 8.09775 12.1373 8.27378 11.9613L12.2994 7.93754L1.43753 7.93754C1.18889 7.93753 0.950436 7.83876 0.774621 7.66295C0.598805 7.48713 0.500034 7.24867 0.500034 7.00003Z" fill="white"/>
</svg>
