<svg width="31" height="31" viewBox="0 0 31 31" fill="none" xmlns="http://www.w3.org/2000/svg">
<path d="M9.08064 0.108404C7.43142 0.186214 6.30518 0.449405 5.32061 0.836286C4.30163 1.2334 3.43796 1.76629 2.57863 2.62871C1.7193 3.49114 1.19013 4.35542 0.795803 5.37594C0.414189 6.36268 0.155647 7.48984 0.082796 9.13997C0.00994524 10.7901 -0.00617493 11.3205 0.00188515 15.5297C0.00994523 19.7389 0.0285454 20.2665 0.108526 21.9201C0.187267 23.569 0.44953 24.6949 0.836414 25.6798C1.23415 26.6987 1.76642 27.5621 2.62916 28.4217C3.4919 29.2814 4.35557 29.8093 5.37858 30.2042C6.36439 30.5852 7.49187 30.845 9.14171 30.9172C10.7915 30.9895 11.3226 31.0062 15.5306 30.9981C19.7385 30.9901 20.2683 30.9715 21.9216 30.8931C23.5748 30.8146 24.6949 30.5505 25.6801 30.1655C26.699 29.7668 27.563 29.2355 28.422 28.3724C29.2811 27.5094 29.8099 26.6445 30.2039 25.6234C30.5859 24.6375 30.8453 23.5101 30.9169 21.8615C30.9892 20.207 31.0062 19.6788 30.9982 15.4702C30.9901 11.2616 30.9712 10.734 30.8928 9.08107C30.8143 7.42815 30.5518 6.30563 30.1652 5.32014C29.7668 4.30117 29.2352 3.43843 28.3727 2.57818C27.5103 1.71793 26.6448 1.18938 25.624 0.796296C24.6375 0.414685 23.5107 0.154594 21.8608 0.0832936C20.211 0.0119933 19.68 -0.00629672 15.4704 0.0017633C11.2609 0.00982333 10.7339 0.0278034 9.08064 0.108404ZM9.26168 28.1288C7.75041 28.0631 6.92983 27.812 6.38299 27.6018C5.65882 27.3228 5.14298 26.9855 4.59799 26.4458C4.05301 25.9061 3.7182 25.3884 3.43548 24.6658C3.22313 24.1189 2.96738 23.2993 2.89669 21.788C2.81981 20.1546 2.80369 19.6642 2.7947 15.526C2.78571 11.3878 2.80152 10.898 2.87313 9.26398C2.93761 7.75396 3.19027 6.93246 3.40014 6.38593C3.67914 5.66083 4.01519 5.14592 4.55614 4.60125C5.0971 4.05658 5.61325 3.72116 6.33649 3.43844C6.88271 3.22515 7.70236 2.97157 9.21301 2.89965C10.8477 2.82215 11.3375 2.80665 15.4751 2.79766C19.6127 2.78867 20.1037 2.80417 21.739 2.87609C23.249 2.94181 24.0708 3.19198 24.6168 3.40309C25.3412 3.6821 25.8568 4.01721 26.4014 4.55909C26.9461 5.10097 27.2818 5.61526 27.5646 6.34004C27.7782 6.88472 28.0317 7.70405 28.103 9.21561C28.1809 10.8503 28.1985 11.3404 28.206 15.4776C28.2134 19.6149 28.1988 20.1063 28.1272 21.7397C28.0612 23.2509 27.8107 24.0718 27.6002 24.6193C27.3212 25.3431 26.9849 25.8593 26.4436 26.4036C25.9023 26.948 25.3868 27.2834 24.6633 27.5661C24.1176 27.7791 23.2971 28.0333 21.7877 28.1052C20.153 28.1821 19.6632 28.1982 15.5241 28.2072C11.3849 28.2162 10.8966 28.1995 9.26199 28.1288M21.8977 7.2158C21.8983 7.5837 22.008 7.94315 22.213 8.2487C22.4179 8.55425 22.7088 8.79216 23.0489 8.93236C23.3891 9.07255 23.7632 9.10873 24.1239 9.03631C24.4846 8.96389 24.8157 8.78613 25.0754 8.5255C25.335 8.26488 25.5116 7.93311 25.5827 7.57214C25.6538 7.21118 25.6162 6.83723 25.4748 6.49761C25.3334 6.15798 25.0944 5.86793 24.7881 5.66414C24.4818 5.46034 24.1219 5.35196 23.754 5.35269C23.2608 5.35368 22.7882 5.5505 22.4401 5.89989C22.092 6.24927 21.8969 6.7226 21.8977 7.2158ZM7.54147 15.5155C7.55015 19.9113 11.1201 23.4667 15.5151 23.4583C19.91 23.4499 23.4679 19.8803 23.4595 15.4845C23.4511 11.0886 19.8802 7.53231 15.4847 7.54099C11.0891 7.54967 7.5331 11.1203 7.54147 15.5155ZM10.3334 15.5099C10.3313 14.488 10.6324 13.4884 11.1984 12.6376C11.7645 11.7869 12.5701 11.123 13.5135 10.7301C14.4568 10.3372 15.4955 10.2328 16.4981 10.4302C17.5008 10.6275 18.4224 11.1178 19.1464 11.839C19.8704 12.5601 20.3644 13.4798 20.5657 14.4816C20.7671 15.4835 20.6668 16.5226 20.2776 17.4674C19.8884 18.4123 19.2278 19.2206 18.3792 19.79C17.5307 20.3594 16.5323 20.6644 15.5104 20.6664C14.8319 20.6679 14.1597 20.5356 13.5323 20.2772C12.9049 20.0188 12.3345 19.6394 11.8537 19.1605C11.373 18.6817 10.9913 18.1128 10.7304 17.4864C10.4695 16.8601 10.3346 16.1884 10.3334 15.5099Z" fill="white"/>
</svg>
