<svg width="31" height="31" viewBox="0 0 31 31" fill="none" xmlns="http://www.w3.org/2000/svg">
<path fill-rule="evenodd" clip-rule="evenodd" d="M26.4721 4.50748C23.5644 1.59824 19.6876 0 15.5592 0C7.05823 0 0.133174 6.8938 0.125776 15.3564C0.125776 18.0668 0.836038 20.7035 2.18258 23.0383L0 31L8.18282 28.8641C10.4394 30.0867 12.9771 30.7349 15.5592 30.7349H15.5666C24.0675 30.7349 30.9926 23.8411 31 15.3711C30.9926 11.2687 29.3871 7.40936 26.4721 4.50748ZM15.5592 28.135C13.2508 28.135 10.9943 27.5163 9.02625 26.3526L8.56014 26.0727L3.70668 27.3395L5.00143 22.6258L4.69809 22.1397C3.41074 20.1069 2.73747 17.7574 2.73747 15.349C2.73747 8.32264 8.49356 2.59254 15.5666 2.59254C18.9921 2.59254 22.2105 3.92564 24.6372 6.33405C27.0566 8.74982 28.3883 11.9537 28.3883 15.3637C28.3809 22.4122 22.6248 28.135 15.5592 28.135ZM22.5952 18.575C22.2105 18.3835 20.3165 17.4555 19.9613 17.3229C19.6062 17.1977 19.3473 17.1314 19.0957 17.5144C18.8368 17.8974 18.0969 18.7665 17.8749 19.0169C17.653 19.2747 17.4236 19.3041 17.0389 19.1126C16.6542 18.9211 15.4112 18.516 13.9389 17.205C12.7921 16.1886 12.0227 14.9292 11.7933 14.5462C11.5714 14.1632 11.7711 13.957 11.9635 13.7655C12.1337 13.5961 12.3482 13.3162 12.5406 13.0953C12.7329 12.8743 12.7995 12.7123 12.9253 12.4545C13.0511 12.1967 12.9919 11.9758 12.8957 11.7843C12.7995 11.5928 12.0301 9.69993 11.7045 8.93395C11.3938 8.1827 11.0757 8.28582 10.8389 8.27845C10.6169 8.26372 10.358 8.26372 10.099 8.26372C9.8401 8.26372 9.42578 8.35947 9.07064 8.74246C8.71551 9.12545 7.72411 10.0535 7.72411 11.9463C7.72411 13.8392 9.10764 15.6584 9.3 15.9161C9.49236 16.1739 12.0153 20.048 15.8847 21.7125C16.8021 22.1102 17.5198 22.3459 18.0821 22.5227C19.0069 22.8173 19.843 22.7731 20.5088 22.6774C21.2487 22.5669 22.7876 21.7493 23.1131 20.8508C23.4313 19.9522 23.4313 19.1863 23.3351 19.0242C23.2389 18.8622 22.98 18.7665 22.5952 18.575Z" fill="white"/>
</svg>
