<?xml version="1.0" standalone="no"?>
<!DOCTYPE svg PUBLIC "-//W3C//DTD SVG 20010904//EN"
 "http://www.w3.org/TR/2001/REC-SVG-20010904/DTD/svg10.dtd">
<svg version="1.0" xmlns="http://www.w3.org/2000/svg"
 width="101.000000pt" height="101.000000pt" viewBox="0 0 101.000000 101.000000"
 preserveAspectRatio="xMidYMid meet">
<metadata>
Created by potrace 1.14, written by Peter Selinger 2001-2017
</metadata>
<g transform="translate(0.000000,101.000000) scale(0.100000,-0.100000)"
fill="#000000" stroke="none">
<path d="M343 990 c-24 -11 -43 -16 -43 -12 0 4 -4 1 -9 -7 -5 -8 -19 -16 -31
-18 -20 -3 -32 -10 -71 -45 -10 -10 -19 -15 -19 -12 0 3 -13 -8 -30 -24 -17
-17 -30 -33 -30 -37 0 -3 -9 -15 -20 -27 -31 -33 -73 -130 -73 -165 0 -13 -4
-23 -8 -23 -5 0 -9 -45 -9 -101 0 -60 4 -98 9 -94 6 3 8 -2 7 -12 -5 -24 58
-156 68 -146 5 4 7 1 4 -7 -5 -17 110 -135 142 -145 11 -3 20 -11 20 -16 0 -5
3 -9 8 -8 15 2 52 -14 52 -22 0 -5 8 -9 18 -9 10 0 22 -3 26 -7 3 -4 12 -8 19
-9 28 -4 42 -9 47 -16 3 -4 41 -9 84 -11 60 -3 86 0 112 13 19 10 31 13 27 6
-3 -6 4 -2 16 9 13 11 25 19 27 18 2 -2 5 -3 7 -2 1 0 11 2 22 4 11 2 21 9 23
15 2 5 8 8 13 4 5 -3 9 0 9 5 0 6 6 11 13 11 11 0 87 74 87 85 0 2 11 16 25
31 13 14 23 30 20 33 -2 4 5 14 16 21 10 8 19 20 19 27 0 7 6 13 13 13 9 0 9
2 -1 9 -11 6 -10 10 3 15 10 3 15 12 11 21 -3 8 -1 15 4 15 14 0 23 59 24 158
1 69 -2 92 -12 92 -7 0 -11 4 -8 8 3 5 -1 21 -9 36 -8 14 -10 24 -5 21 6 -3 7
1 4 9 -3 9 -11 13 -17 9 -6 -4 -8 0 -4 10 3 10 2 17 -3 17 -6 0 -9 6 -8 13 2
6 -3 11 -10 9 -8 -1 -11 1 -9 5 8 13 -19 66 -51 100 -16 17 -27 34 -24 37 3 3
0 6 -7 6 -7 0 -33 14 -57 31 -25 17 -60 31 -78 32 -19 1 -34 7 -33 12 1 6 -4
9 -10 8 -7 -2 -13 1 -13 7 0 5 -7 7 -15 4 -8 -4 -15 -2 -15 4 0 6 -45 10 -112
10 -91 1 -121 -3 -155 -18z"/>
</g>
</svg>
